<svg version="1.0" xmlns="http://www.w3.org/2000/svg"
 width="15.000000pt" height="15.000000pt" viewBox="0 0 10.000000 10.000000"
 preserveAspectRatio="xMidYMid meet">

   <g transform="translate(0.000000,10.000000) scale(0.000750,-0.000789)"
   fill="#000000" stroke="none">
   <path d="M2300 12662 c-174 -58 -453 -317 -599 -554 -186 -306 -260 -629 -233
   -1020 13 -193 37 -325 87 -473 18 -55 425 -1099 905 -2320 480 -1221 875
   -2230 877 -2242 7 -31 -834 -2159 -869 -2199 -15 -17 -45 -39 -68 -49 -39 -17
   -52 -18 -218 -6 -197 14 -334 6 -500 -29 -514 -109 -970 -471 -1194 -948 -59
   -124 -114 -302 -138 -445 -20 -121 -21 -154 -17 -530 3 -370 5 -410 26 -502
   134 -605 550 -1072 1127 -1265 174 -58 319 -80 524 -80 285 0 513 54 758 180
   162 83 287 175 422 310 220 221 370 474 455 771 67 232 67 237 75 1154 6 802
   7 833 27 905 44 159 108 285 202 402 33 40 135 149 228 241 l169 168 196 -198
   c256 -260 334 -378 399 -608 23 -79 23 -87 30 -910 6 -832 7 -861 45 -1043 39
   -190 138 -425 251 -597 255 -388 628 -647 1075 -747 92 -20 129 -23 338 -23
   209 0 246 3 338 23 672 150 1168 649 1313 1318 19 85 23 146 29 439 4 187 3
   394 -2 460 -40 540 -333 1022 -798 1312 -185 115 -426 202 -650 234 -103 15
   -302 17 -465 5 -112 -8 -124 -7 -160 12 -22 11 -51 32 -64 46 -22 23 -871
   2152 -871 2184 0 7 397 1024 881 2260 485 1236 894 2286 910 2333 69 212 102
   521 81 762 -36 400 -202 751 -483 1023 -214 205 -340 270 -508 262 -137 -7
   -253 -71 -326 -182 -22 -32 -315 -764 -795 -1981 -419 -1061 -763 -1931 -764
   -1932 -2 -2 -339 851 -751 1894 -411 1044 -760 1926 -776 1961 -37 83 -118
   163 -206 205 -59 27 -81 32 -163 34 -71 2 -109 -2 -150 -15z m4035 -471 c187
   -142 344 -370 409 -594 41 -141 49 -205 49 -368 -1 -172 -13 -270 -48 -404
   -13 -49 -138 -380 -277 -735 -140 -355 -501 -1276 -803 -2047 -303 -771 -553
   -1399 -557 -1395 -3 4 -124 306 -268 671 l-261 664 838 2132 c481 1224 842
   2130 848 2127 6 -3 37 -26 70 -51z m-2228 -4197 c919 -2331 1683 -4263 1698
   -4293 84 -172 260 -302 457 -337 83 -15 109 -15 308 6 64 7 127 7 197 0 580
   -59 1049 -496 1147 -1069 22 -132 23 -688 1 -817 -80 -465 -406 -844 -851
   -993 -238 -80 -514 -82 -751 -5 -384 123 -705 448 -837 850 -61 185 -59 147
   -66 1054 -7 923 -6 904 -75 1125 -56 179 -157 365 -273 505 -25 30 -191 201
   -368 380 -310 314 -371 384 -428 498 -15 29 -430 1079 -922 2335 -493 1255
   -1006 2562 -1140 2904 -158 402 -253 658 -269 725 -33 137 -50 376 -35 510 38
   341 202 629 479 840 20 15 40 26 46 24 5 -1 762 -1910 1682 -4242z m-397
   -2884 c153 -392 190 -467 309 -627 l24 -32 -209 -214 c-123 -125 -235 -250
   -273 -303 -79 -111 -182 -321 -215 -436 -60 -208 -59 -193 -66 -1103 -7 -913
   -5 -874 -66 -1059 -111 -336 -356 -623 -664 -779 -523 -264 -1173 -106 -1533
   371 -124 165 -207 356 -242 556 -22 129 -22 684 1 817 81 473 420 864 880
   1014 165 54 376 71 564 45 286 -39 547 98 672 355 13 28 173 427 354 887 181
   460 332 834 335 830 4 -4 62 -149 129 -322z"/>
   <path d="M6500 2945 c-171 -35 -306 -109 -435 -239 -100 -101 -158 -193 -199
   -317 -43 -127 -48 -195 -43 -537 3 -263 7 -327 21 -377 90 -308 310 -526 616
   -611 101 -28 329 -26 434 4 318 91 556 351 611 667 22 126 21 619 -1 736 -64
   340 -333 610 -672 675 -90 17 -244 17 -332 -1z m339 -455 c123 -57 216 -176
   241 -310 5 -29 10 -155 10 -280 0 -125 -5 -251 -10 -280 -42 -220 -263 -381
   -470 -342 -172 32 -301 151 -345 317 -19 73 -22 513 -4 597 56 264 338 409
   578 298z"/>
   <path d="M1850 2945 c-334 -66 -601 -338 -664 -674 -12 -64 -16 -151 -16 -375
   0 -346 11 -423 83 -571 112 -230 298 -387 543 -457 105 -30 333 -32 434 -4
   308 85 529 305 617 616 16 58 18 105 18 420 0 341 -1 358 -23 435 -94 324
   -350 557 -676 614 -79 14 -235 12 -316 -4z m259 -426 c157 -36 286 -168 320
   -327 18 -84 15 -524 -4 -597 -44 -166 -173 -285 -345 -317 -207 -39 -428 122
   -470 342 -13 69 -13 491 0 560 15 81 53 154 112 216 103 109 249 155 387 123z"/>
   <path d="M9445 12663 c-156 -33 -314 -122 -426 -239 -106 -111 -154 -193 -205
   -344 l-29 -85 0 -5650 c0 -5446 1 -5652 18 -5715 87 -308 322 -539 620 -610
   115 -28 304 -28 413 0 256 66 472 250 575 490 68 161 63 -6 69 2091 l5 1896
   30 48 c20 32 45 56 74 72 l44 23 891 0 c726 1 906 3 971 15 237 42 441 236
   501 474 24 97 16 264 -18 358 -55 154 -178 292 -323 364 -143 70 -117 69
   -1105 69 -586 0 -898 4 -923 11 -49 13 -105 63 -128 114 -15 32 -19 66 -19
   162 l0 123 1083 2 1082 3 40 22 c77 41 115 105 115 193 0 88 -38 152 -115 193
   l-40 22 -1082 3 -1083 2 0 205 0 205 1075 0 c1177 0 1114 -3 1178 58 45 43 67
   94 67 158 0 90 -43 158 -125 195 -38 18 -94 19 -1117 19 l-1078 0 0 205 0 204
   1083 3 1082 3 45 25 c65 36 103 96 108 169 7 100 -29 170 -112 214 l-41 22
   -1082 3 -1083 2 0 205 0 205 1075 0 c1177 0 1114 -3 1178 58 51 48 70 97 65
   172 -5 86 -38 138 -111 175 l-51 25 -1078 0 -1078 0 0 210 0 210 1083 0 1084
   0 44 23 c128 68 148 256 38 351 -22 19 -60 39 -84 45 -31 8 -364 11 -1104 11
   l-1061 0 0 205 0 205 1068 0 c714 0 1080 4 1105 11 48 13 102 61 129 112 16
   32 19 54 16 108 -4 83 -39 140 -107 176 l-44 23 -1084 0 -1085 0 4 139 c3 137
   4 140 33 183 17 24 51 54 75 68 l45 25 945 5 945 5 58 22 c187 71 330 214 394
   393 35 98 44 263 19 361 -59 229 -252 420 -478 474 -95 22 -2968 21 -3073 -2z
   m3016 -441 c89 -47 133 -132 115 -227 -7 -38 -49 -91 -100 -128 l-31 -22 -940
   -5 -940 -5 -75 -27 c-114 -40 -167 -74 -256 -162 -61 -61 -90 -100 -117 -156
   -73 -149 -67 91 -67 -2825 0 -2933 -6 -2688 72 -2838 81 -156 230 -273 404
   -317 74 -19 114 -20 969 -20 985 0 945 2 1013 -63 101 -96 93 -234 -17 -312
   l-43 -30 -931 -5 c-1037 -6 -974 -2 -1127 -77 -104 -51 -221 -168 -272 -273
   -72 -147 -68 -3 -68 -2045 0 -1133 -4 -1863 -10 -1899 -22 -138 -109 -255
   -235 -317 -66 -32 -75 -34 -175 -34 -97 0 -110 2 -172 32 -119 56 -196 146
   -232 273 -15 50 -16 555 -14 5620 l3 5565 22 55 c48 118 150 212 268 250 58
   18 110 19 1481 19 l1422 1 53 -28z"/>
   </g>
</svg>